<?xml version="1.0" standalone="no"?>
<!DOCTYPE svg PUBLIC "-//W3C//DTD SVG 20010904//EN"
 "http://www.w3.org/TR/2001/REC-SVG-20010904/DTD/svg10.dtd">
<svg version="1.0" xmlns="http://www.w3.org/2000/svg"
 width="1024.000000pt" height="1024.000000pt" viewBox="0 0 1024.000000 1024.000000"
 preserveAspectRatio="xMidYMid meet">

<g transform="translate(0.000000,1024.000000) scale(0.100000,-0.100000)"
fill="#000000" stroke="none">
<path d="M7820 9095 l0 -135 -135 0 -135 0 0 -2130 0 -2130 -205 0 -205 0 0
-145 0 -145 -160 0 -160 0 0 280 0 280 145 0 145 0 0 145 0 145 -145 0 -145 0
0 580 0 580 -150 0 -150 0 0 280 0 280 -130 0 -130 0 0 145 0 145 -145 0 -145
0 0 140 0 140 -145 0 -145 0 0 140 0 140 -140 0 -140 0 0 150 0 150 -140 0
-139 0 -3 148 -3 147 -297 3 -298 4 0 -151 0 -151 293 -3 c160 -2 97 -2 -140
-1 l-433 4 0 -150 0 -150 -145 0 -145 0 0 -140 0 -140 -145 0 -145 0 0 -140 0
-140 -145 0 -145 0 0 -145 0 -145 -142 0 -143 0 3 -280 3 -280 -141 0 -140 0
0 -435 0 -434 -141 -3 -141 -3 -1 -140 -2 -140 -137 -3 -138 -3 0 -144 0 -144
137 -3 138 -3 0 -133 0 -132 143 0 142 0 0 -280 0 -280 -140 0 -140 0 -2 -277
-3 -278 -137 -3 -138 -3 0 -429 0 -430 141 0 141 0 -4 -140 -3 -140 143 0 142
0 0 -140 0 -140 285 0 285 0 0 -275 0 -275 -145 0 -145 0 0 -290 0 -290 715 0
715 0 0 290 0 290 305 0 305 0 0 -290 0 -290 845 0 845 0 0 290 0 290 -150 0
-150 0 0 135 0 135 -130 0 -130 0 0 715 0 715 275 0 275 0 0 -145 0 -145 370
0 370 0 0 -150 0 -150 495 0 495 0 0 710 0 710 350 0 350 0 0 280 0 280 -220
0 -220 0 0 1995 0 1994 -127 3 -128 3 -3 133 -3 132 -124 0 -125 0 0 133 0
133 -235 2 -235 3 0 -136z m461 -207 c0 -40 0 -101 -1 -135 l-1 -63 131 0 131
0 -3 -1995 -3 -1995 127 0 127 0 3 -141 c2 -77 2 -141 1 -142 -1 -1 -167 -1
-370 1 l-369 2 0 563 1 562 -118 0 -117 0 0 1708 0 1707 230 0 230 0 1 -72z
m-3754 -990 c-2 -35 -3 -7 -3 62 0 69 1 97 3 63 2 -35 2 -91 0 -125z m-139
-75 l-127 -4 -4 -132 -3 -132 -2 138 -2 137 133 -2 132 -2 -127 -3z m1002
-133 l0 -140 -135 0 -135 0 0 140 0 140 135 0 135 0 0 -140z m-570 -280 l0
-139 148 -3 147 -3 2 -275 2 -275 138 -5 138 -5 0 -433 0 -432 -572 0 -573 0
0 -145 0 -145 135 0 135 0 0 -425 0 -425 153 0 152 0 -3 135 -3 135 155 0 156
0 0 145 0 145 133 0 132 0 0 -143 0 -142 288 -3 287 -2 2 -273 c1 -149 4 -210
5 -134 l4 137 139 0 140 0 0 -140 0 -140 -152 0 c-315 1 -993 -9 -990 -14 1
-3 2 -64 2 -136 l0 -130 135 0 135 0 0 -142 0 -143 -134 3 -134 3 0 122 c0 67
-1 130 -1 140 -1 15 -15 17 -146 17 l-145 0 -1 33 c-1 17 -2 78 -3 135 l-1
103 -150 1 -150 1 -3 -136 -3 -137 150 0 150 0 3 -140 3 -140 -152 0 -153 0 0
140 0 140 -135 0 -135 0 0 280 0 280 -150 0 -150 0 0 135 0 135 -145 0 -145 0
0 -135 0 -135 -425 0 -425 0 0 280 0 280 140 0 140 0 0 -145 0 -145 285 0 285
0 0 435 0 435 -145 0 -145 0 0 548 c1 301 4 557 7 570 5 23 7 23 144 20 l139
-3 0 142 0 142 143 3 142 3 3 143 3 142 434 0 435 0 0 -140z m860 -145 l0
-285 -140 0 -140 0 0 285 0 285 140 0 140 0 0 -285z m277 -217 c-3 -8 -6 -5
-6 6 -1 11 2 17 5 13 3 -3 4 -12 1 -19z m-164 -65 c-7 -2 -19 -2 -25 0 -7 3
-2 5 12 5 14 0 19 -2 13 -5z m95 0 c-10 -2 -28 -2 -40 0 -13 2 -5 4 17 4 22 1
32 -1 23 -4z m235 -1426 l142 -3 -147 -2 -148 -2 2 713 3 712 2 -707 3 -707
143 -4z m-446 940 c-1 -84 -3 -12 -3 158 0 171 2 239 3 152 2 -87 2 -227 0
-310z m580 431 c-3 -7 -5 -2 -5 12 0 14 2 19 5 13 2 -7 2 -19 0 -25z m0 -360
c-2 -29 -3 -6 -3 52 0 58 1 81 3 53 2 -29 2 -77 0 -105z m0 -90 c-3 -7 -5 -2
-5 12 0 14 2 19 5 13 2 -7 2 -19 0 -25z m260 -510 c-1 -73 -3 -14 -3 132 0
146 2 205 3 133 2 -73 2 -193 0 -265z m-840 -5 c-1 -71 -3 -13 -3 127 0 140 2
198 3 128 2 -71 2 -185 0 -255z m-2580 -45 c-2 -18 -4 -4 -4 32 0 36 2 50 4
33 2 -18 2 -48 0 -65z m0 -70 c-3 -8 -6 -5 -6 6 -1 11 2 17 5 13 3 -3 4 -12 1
-19z m3216 -5 c-7 -2 -19 -2 -25 0 -7 3 -2 5 12 5 14 0 19 -2 13 -5z m-56
-200 c-2 -37 -3 -9 -3 62 0 72 1 102 3 68 2 -34 2 -93 0 -130z m-1120 -10 c-2
-37 -3 -9 -3 62 0 72 1 102 3 68 2 -34 2 -93 0 -130z m540 130 c-3 -10 -5 -2
-5 17 0 19 2 27 5 18 2 -10 2 -26 0 -35z m0 -105 c-3 -7 -5 -2 -5 12 0 14 2
19 5 13 2 -7 2 -19 0 -25z m-2580 -50 c-3 -7 -5 -2 -5 12 0 14 2 19 5 13 2 -7
2 -19 0 -25z m2580 -105 c-2 -27 -3 -5 -3 47 0 52 1 74 3 48 2 -27 2 -69 0
-95z m-2437 54 l135 -3 -142 -2 c-130 -2 -143 0 -143 16 0 12 3 13 8 5 5 -9
50 -13 142 -16z m2092 -4 c-40 -2 -103 -2 -140 0 -37 2 -4 3 73 3 77 0 107 -2
67 -3z m1188 -428 l0 -425 -127 2 -128 2 123 3 122 4 0 419 c0 231 2 420 5
420 3 0 5 -191 5 -425z m1307 -208 c-1 -111 -2 -17 -2 208 0 226 1 316 2 202
2 -115 2 -299 0 -410z m-2150 181 c-1 -62 -3 -14 -3 107 0 121 2 172 3 113 2
-59 2 -158 0 -220z m-2934 155 c-34 -2 -93 -2 -130 0 -37 2 -9 3 62 3 72 0
102 -1 68 -3z m559 0 c-40 -2 -103 -2 -140 0 -37 2 -4 3 73 3 77 0 107 -2 67
-3z m-765 -180 c-2 -27 -3 -5 -3 47 0 52 1 74 3 48 2 -27 2 -69 0 -95z m5030
-570 c-2 -37 -3 -9 -3 62 0 72 1 102 3 68 2 -34 2 -93 0 -130z m-3709 -80
c-38 -2 -98 -2 -135 0 -38 2 -7 3 67 3 74 0 105 -1 68 -3z m4065 0 c-68 -2
-178 -2 -245 0 -68 1 -13 3 122 3 135 0 190 -2 123 -3z m-4620 -20 c-40 -2
-106 -2 -145 0 -40 1 -8 3 72 3 80 0 112 -2 73 -3z m654 -175 c-2 -35 -3 -9
-3 57 0 66 1 94 3 63 2 -32 2 -86 0 -120z m1430 -30 c-2 -24 -4 -5 -4 42 0 47
2 66 4 43 2 -24 2 -62 0 -85z m-2020 10 c-3 -7 -5 -2 -5 12 0 14 2 19 5 13 2
-7 2 -19 0 -25z m773 -62 c19 -1 -16 -3 -77 -4 -62 -1 -113 1 -113 6 0 6 107
6 190 -2z m-480 -148 l0 -143 -287 2 -288 3 -3 140 -3 140 291 0 290 0 0 -142z
m197 136 c-3 -3 -12 -4 -19 -1 -8 3 -5 6 6 6 11 1 17 -2 13 -5z m83 -134 l0
-140 -132 2 -133 2 128 3 127 4 0 128 c0 94 -3 131 -12 134 -8 3 -6 6 5 6 15
1 17 -12 17 -139z m3390 -135 l0 -275 -255 0 -255 0 0 275 0 275 255 0 255 0
0 -275z m388 -268 l97 -3 -102 -2 -103 -2 2 278 3 277 2 -272 3 -272 98 -4z
m549 140 c-1 -73 -3 -10 -3 138 0 149 2 208 3 132 2 -76 2 -198 0 -270z
m-5244 126 c-29 -2 -77 -2 -105 0 -29 2 -6 3 52 3 58 0 81 -1 53 -3z m2035 0
c-32 -2 -86 -2 -120 0 -35 2 -9 3 57 3 66 0 94 -1 63 -3z m-1615 -270 c-13 -2
-35 -2 -50 0 -16 2 -5 4 22 4 28 0 40 -2 28 -4z m155 0 c-21 -2 -55 -2 -75 0
-21 2 -4 4 37 4 41 0 58 -2 38 -4z m62 -578 l0 -285 -290 0 -290 0 0 145 0
145 -135 0 -135 0 0 140 0 140 425 0 425 0 0 -285z m4172 155 l-3 -130 213 -3
213 -2 -217 -3 -218 -2 0 135 c0 74 3 135 8 135 4 0 6 -58 4 -130z m221 123
c-23 -2 -64 -2 -90 0 -26 2 -7 3 42 3 50 0 71 -1 48 -3z m214 -205 c-1 -40 -3
-8 -3 72 0 80 2 112 3 73 2 -40 2 -106 0 -145z m-3274 -85 c-148 -3 -152 -4
-156 -26 -4 -19 -4 -18 -6 6 l-1 27 158 -2 157 -2 -152 -3z m684 -85 c-2 -18
-4 -4 -4 32 0 36 2 50 4 33 2 -18 2 -48 0 -65z m-3140 -130 c-2 -35 -3 -7 -3
62 0 69 1 97 3 63 2 -35 2 -91 0 -125z m3140 45 c-3 -10 -5 -2 -5 17 0 19 2
27 5 18 2 -10 2 -26 0 -35z m-2224 -380 c-117 -2 -309 -2 -425 0 -117 1 -22 2
212 2 234 0 329 -1 213 -2z m3057 -983 l0 -140 -270 0 c-251 0 -270 1 -269 18
0 10 3 12 6 5 3 -10 66 -13 264 -13 l259 0 0 130 0 129 -117 4 -118 3 123 2
122 2 0 -140z m-2402 -137 c-82 -2 -214 -2 -295 0 -82 1 -15 3 147 3 162 0
229 -2 148 -3z"/>
<path d="M5228 4983 c28 -2 76 -2 105 0 28 2 5 3 -53 3 -58 0 -81 -1 -52 -3z"/>
</g>
</svg>
